<?xml version="1.0" encoding="UTF-8" standalone="no"?>
<!-- Created with Inkscape (http://www.inkscape.org/) -->

<svg
   width="2000"
   height="200"
   viewBox="0 0 529.16665 52.916666"
   version="1.1"
   id="svg1"
   xml:space="preserve"
   sodipodi:docname="sport baner.svg"
   inkscape:version="1.4.2 (f4327f4, 2025-05-13)"
   xmlns:inkscape="http://www.inkscape.org/namespaces/inkscape"
   xmlns:sodipodi="http://sodipodi.sourceforge.net/DTD/sodipodi-0.dtd"
   xmlns:xlink="http://www.w3.org/1999/xlink"
   xmlns="http://www.w3.org/2000/svg"
   xmlns:svg="http://www.w3.org/2000/svg"
   xmlns:rdf="http://www.w3.org/1999/02/22-rdf-syntax-ns#"
   xmlns:cc="http://creativecommons.org/ns#"
   xmlns:dc="http://purl.org/dc/elements/1.1/"><sodipodi:namedview
     id="namedview1"
     pagecolor="#ffffff"
     bordercolor="#000000"
     borderopacity="0.25"
     inkscape:showpageshadow="2"
     inkscape:pageopacity="0.0"
     inkscape:pagecheckerboard="0"
     inkscape:deskcolor="#d1d1d1"
     inkscape:clip-to-page="true"
     inkscape:zoom="0.59"
     inkscape:cx="1071.1864"
     inkscape:cy="166.94915"
     inkscape:window-width="1920"
     inkscape:window-height="1017"
     inkscape:window-x="-8"
     inkscape:window-y="-8"
     inkscape:window-maximized="1"
     inkscape:current-layer="g2" /><defs
     id="defs1"><linearGradient
       id="linearGradient33"
       inkscape:collect="always"><stop
         style="stop-color:#3bd13b;stop-opacity:1;"
         offset="0"
         id="stop33" /><stop
         style="stop-color:#000000;stop-opacity:1;"
         offset="1"
         id="stop34" /></linearGradient><linearGradient
       id="linearGradient16"><stop
         style="stop-color:#d0041d;stop-opacity:1;"
         offset="0"
         id="stop16" /><stop
         style="stop-color:#000000;stop-opacity:1;"
         offset="1"
         id="stop17" /></linearGradient><rect
       x="54.539278"
       y="29.21747"
       width="368.82417"
       height="151.31639"
       id="rect12" /><rect
       x="33.113133"
       y="35.060965"
       width="940.80255"
       height="151.93084"
       id="rect11" /><linearGradient
       xlink:href="#linearGradient16"
       id="linearGradient17"
       x1="270.19553"
       y1="2.9726095"
       x2="270.1955"
       y2="424.18927"
       gradientUnits="userSpaceOnUse" /><rect
       x="54.539278"
       y="29.21747"
       width="368.82417"
       height="151.31639"
       id="rect17" /><filter
       style="color-interpolation-filters:sRGB;"
       inkscape:label="Blur"
       id="filter1"
       x="-0.016380724"
       y="-0.052647815"
       width="1.0327614"
       height="1.1052956"><feGaussianBlur
         stdDeviation="2 2"
         result="blur"
         id="feGaussianBlur1" /></filter><rect
       x="54.539278"
       y="29.21747"
       width="368.82417"
       height="151.31639"
       id="rect14" /><rect
       x="54.539278"
       y="29.21747"
       width="368.82417"
       height="151.31639"
       id="rect2" /><linearGradient
       id="a"><stop
         offset="0"
         id="stop1" /><stop
         stop-opacity="0"
         offset="1"
         id="stop2" /></linearGradient><linearGradient
       id="f"
       x1="364.97239"
       x2="379.89402"
       y1="531.36655"
       y2="444.61944"
       gradientTransform="scale(1.3151275,0.76038256)"
       gradientUnits="userSpaceOnUse"><stop
         stop-color="#333"
         offset="0"
         id="stop3" /><stop
         stop-opacity="0"
         offset="1"
         id="stop4" /></linearGradient><linearGradient
       id="e"
       x1="446.6414"
       x2="322.32616"
       y1="503.17156"
       y2="463.36444"
       xlink:href="#a"
       gradientTransform="scale(0.91177618,1.0967604)"
       gradientUnits="userSpaceOnUse" /><linearGradient
       id="d"
       x1="556.89771"
       x2="684.48078"
       y1="561.01985"
       y2="581.44672"
       xlink:href="#a"
       gradientTransform="scale(0.93257732,1.0722971)"
       gradientUnits="userSpaceOnUse" /><radialGradient
       id="c"
       cx="478.61"
       cy="550.29"
       r="225.06"
       gradientUnits="userSpaceOnUse"><stop
         stop-color="#fff"
         offset="0"
         id="stop5" /><stop
         stop-color="#fff"
         offset=".4702"
         id="stop6" /><stop
         stop-color="#d6d6d6"
         offset="1"
         id="stop7" /></radialGradient><radialGradient
       id="b"
       cx="477.49"
       cy="544.3"
       r="206.09"
       gradientUnits="userSpaceOnUse"><stop
         stop-color="#6a6a6a"
         offset="0"
         id="stop8" /><stop
         offset="1"
         id="stop9" /></radialGradient><linearGradient
       inkscape:collect="always"
       xlink:href="#linearGradient33"
       id="linearGradient34"
       x1="276.27905"
       y1="-101.23357"
       x2="276.27905"
       y2="255.59521"
       gradientUnits="userSpaceOnUse" /><rect
       x="54.539278"
       y="29.21747"
       width="368.82417"
       height="151.31639"
       id="rect1" /></defs><metadata
     id="metadata1"><rdf:RDF><cc:Work
         rdf:about=""><dc:creator><cc:Agent><dc:title>Michnel Żyszkiewicz</dc:title></cc:Agent></dc:creator><dc:rights><cc:Agent><dc:title>Michnel Żyszkiewicz</dc:title></cc:Agent></dc:rights></cc:Work></rdf:RDF></metadata><rect
     style="fill:url(#linearGradient34);fill-opacity:1;stroke-width:0.2016125;stroke-dasharray:none"
     id="rect13"
     width="530.30927"
     height="54.628551"
     x="-0.51536322"
     y="0" /><g
     id="layer1"><text
       xml:space="preserve"
       transform="matrix(0.5175543,0,0,0.5175543,-22.867088,-24.073963)"
       id="text2"
       style="font-size:120px;text-align:start;writing-mode:lr-tb;direction:ltr;white-space:pre;shape-inside:url(#rect2);display:inline;fill:#000000;fill-opacity:1;opacity:0.5;-inkscape-font-specification:'Fira Sans';font-family:'Fira Sans';font-weight:normal;font-style:normal;font-stretch:normal;font-variant:normal"><tspan
         x="54.539062"
         y="137.7168"
         id="tspan1">Sport</tspan></text><text
       xml:space="preserve"
       transform="matrix(0.5175543,0,0,0.5175543,-22.194419,-24.522409)"
       id="text1"
       style="font-size:120px;text-align:start;writing-mode:lr-tb;direction:ltr;white-space:pre;shape-inside:url(#rect1);display:inline;fill:#ffffff;fill-opacity:1"><tspan
         x="54.539062"
         y="138.69643"
         id="tspan3"><tspan
           style="font-family:'Fira Sans';-inkscape-font-specification:'Fira Sans'"
           id="tspan2">Sport</tspan></tspan></text></g><style
     type="text/css"
     id="style1">
	.st0{fill-rule:evenodd;clip-rule:evenodd;fill:#D0041D;}
	.st1{fill-rule:evenodd;clip-rule:evenodd;fill:#4E6A6F;}
	.st2{fill-rule:evenodd;clip-rule:evenodd;fill:#FFFFFF;}
	.st3{fill:none;stroke:#FFFFFF;stroke-width:6.505;}
	.st4{fill:#4E6A6F;}
</style><g
     id="g2"
     transform="matrix(0,-0.19338944,0.192733,0,426.39546,90.873308)"><path
       transform="translate(-236.97,-361.7)"
       d="m 687.14,591.56 c 0,124.25 -100.84,225.08 -225.08,225.08 -124.24,0 -225.08,-100.84 -225.08,-225.08 0,-124.24 100.84,-225.08 225.08,-225.08 124.24,0 225.08,100.84 225.08,225.08 z"
       fill="url(#b)"
       fill-rule="evenodd"
       id="path9"
       style="display:inline;fill:#ffffff;fill-opacity:0;stroke:#000000;stroke-width:1.68567;stroke-dasharray:none;stroke-opacity:1" /><path
       transform="translate(-236.97,-361.7)"
       d="m 462.05,366.48 c -49.128,0 -94.576,15.785 -131.59,42.531 -16.116,19.49 -27.406,39 -27.406,39 l -20.562,7.875 c -28.559,37.736 -45.5,84.748 -45.5,135.69 0,4.7581 0.14613,9.4712 0.4375,14.156 5.1158,9.1397 8.9375,14.969 8.9375,14.969 l -2.625,25.688 c 14.701,58.68 52.455,108.24 103.06,138.5 3.6158,2.3383 6.6361,3.7538 9.9542,5.6308 -1.7605,-1.6631 -2.3028,-2.108 -3.4542,-3.162 -13.247,-13.702 -24.406,-29.719 -24.406,-29.719 l 32.031,-29.469 c 3e-5,0 20.594,15.565 43.719,23.625 23.125,8.06 48.781,8.6249 48.781,8.6249 l 15.875,40.75 c 0,0 -14.028,7.1945 -33.938,10.719 -3.5652,0.6311 -7.333,1.1444 -11.094,1.5625 12.288,2.0813 24.903,3.1875 37.781,3.1875 52.043,0 99.99,-17.684 138.12,-47.375 11.93,-15.985 19.75,-29.719 19.75,-29.719 l 17.375,-6.8125 c 30.833,-38.223 49.436,-86.719 49.812,-139.53 -6.1241,-18.158 -12.812,-28.812 -12.812,-28.812 0,0 1.7072,-16.582 -0.69061,-34.848 -0.37628,-2.866 1.5495,-1.846 3.8673,-3.4022 -0.68744,-2.5948 -3.185,-10.306 -4.445,-13.988 -4.9603,-14.496 -9.8394,-21.412 -13.044,-27.824 6.2433,3.4876 -0.0245,-0.0189 -0.0312,-0.0312 -38.13,-70.163 -112.49,-117.81 -197.91,-117.81 z m 27.219,8.5625 c 18.704,0.25577 38.219,6.3125 38.219,6.3125 0,0 22.173,8.5206 38,20.562 15.827,12.0414 25.312,27.594 25.312,27.594 l -40.25,27.812 c 0,-3e-5 -21.666,-14.842 -44.312,-22.844 -22.646,-8.002 -46.281,-9.1562 -46.281,-9.1562 l -11.406,-41.531 c 0,0 17.263,-8.1103 37,-8.7188 1.2336,-0.038 2.4718,-0.0483 3.7188,-0.0312 z m -131.53,111.19 c 13.82,0.0635 25.312,1.7188 25.312,1.7188 l 20.812,88.438 -66.812,63.625 c 0,0 -20.863,-13.237 -35.906,-26.188 -15.043,-12.951 -24.281,-25.625 -24.281,-25.625 0,0 2.7158,-25.654 8.8438,-47.719 6.128,-22.065 15.688,-40.531 15.688,-40.531 0,0 16.519,-9.5067 36.938,-12.5 6.3809,-0.93543 13.124,-1.2476 19.406,-1.2188 z m 216.53,63.156 c 0,0 18.838,8.2533 34.031,20.406 15.193,12.1527 26.75,28.219 26.75,28.219 0,0 -1.0777,22.001 -8.3438,44.875 -7.2661,22.874 -20.719,46.625 -20.719,46.625 0,0 -18.778,6.8908 -38.594,8.75 -19.816,1.8592 -40.688,-1.3125 -40.688,-1.3125 l -10.344,-43.281 -10.656,-44.5 c 0,0 14.142,-17.052 31.281,-32 17.139,-14.948 37.281,-27.781 37.281,-27.781 z"
       fill="url(#c)"
       fill-rule="evenodd"
       id="path10"
       style="display:inline;fill:url(#c)" /><path
       transform="translate(-236.97,-361.7)"
       d="m 337.13,638.06 c 0,0 -20.337,-12.906 -35.001,-25.53 -14.664,-12.624 -23.655,-24.968 -23.655,-24.968 0,0 2.6368,-24.996 8.6103,-46.505 5.9735,-21.509 15.284,-39.53 15.284,-39.53 0,0 16.098,-9.255 36.003,-12.173 19.905,-2.918 43.615,0.50134 43.615,0.50134 l 20.279,86.211 -65.135,61.995 z"
       fill="none"
       stroke="url(#e)"
       stroke-linejoin="round"
       stroke-width="4.874"
       id="path12"
       style="display:inline;stroke:#000000;stroke-opacity:1" /><path
       transform="translate(-236.97,-361.7)"
       d="m 382.01,489.15 c 0,0 36.187,-48.081 78.437,-64.331"
       fill="none"
       stroke="#666666"
       id="path14"
       style="display:inline" /><path
       transform="translate(-236.97,-361.7)"
       d="m 550.37,456.61 c 0,0 27.576,44.376 24.076,93.376"
       fill="none"
       stroke="#666666"
       id="path16"
       style="display:inline" /><path
       transform="translate(-236.97,-361.7)"
       d="m 587.8,429.25 c 0,0 59.783,23.6 86.033,98.35"
       fill="none"
       stroke="#666666"
       id="path17"
       style="display:inline" /><path
       transform="translate(-236.97,-361.7)"
       d="m 635.42,597.89 c 0,0 21.044,-1.6348 39.429,-32.747"
       fill="none"
       stroke="#666666"
       id="path18"
       style="display:inline" /><path
       transform="translate(-236.97,-361.7)"
       d="m 620.39,739.32 c 0,0 2.9208,-18.129 -14.521,-50.953"
       fill="none"
       stroke="#666666"
       id="path19"
       style="display:inline" /><path
       transform="translate(-236.97,-361.7)"
       d="m 453.67,760.93 c 0,0 32.35,-8.5737 73.362,-65.142"
       fill="none"
       stroke="#666666"
       id="path20" /><path
       transform="translate(-236.97,-361.7)"
       d="m 336.82,639.22 c 0,0 -1.9446,50.381 23.158,89.979"
       fill="none"
       stroke="#666666"
       id="path21" /><path
       transform="translate(-236.97,-361.7)"
       d="m 328.88,757.9 c 0,0 -7.4296,0.0924 -35.545,-16.858"
       fill="none"
       stroke="#666666"
       id="path22" /><path
       transform="translate(-236.97,-361.7)"
       d="m 277.33,588.14 c 0,0 -20.149,8.4634 -31.002,31.911"
       fill="none"
       stroke="#666666"
       id="path23" /><path
       transform="translate(-236.97,-361.7)"
       d="m 302.7,448.25 c 0,0 -7.2316,27.912 -0.94794,51.363"
       fill="none"
       stroke="#666666"
       id="path24" /><path
       transform="translate(-236.97,-361.7)"
       d="m 326.92,412.6 c 0,0 60.054,-50.895 121.22,-28.268"
       fill="none"
       stroke="#666666"
       id="path25" /><path
       transform="translate(-236.97,-361.7)"
       d="m 469.15,801.22 c 0,0 52.386,13.451 133.19,-34.233"
       fill="none"
       stroke="#666666"
       id="path26" /><path
       transform="translate(-236.97,-361.7)"
       d="m 382.2,485.55 c 0,0 30.091,-41.441 74.341,-61.316"
       fill="none"
       stroke="#f2f2f2"
       stroke-linecap="square"
       stroke-width="3"
       id="path27" /><path
       transform="translate(-236.97,-361.7)"
       d="m 454.49,762.67 c 0,0 30.822,-5.9461 71.835,-62.515"
       fill="none"
       stroke="#ffffff"
       stroke-width="3"
       id="path28" /><path
       transform="translate(-236.97,-361.7)"
       d="m 334.79,640.34 c 0,0 -1.9446,50.396 23.158,89.994"
       fill="none"
       stroke="#ffffff"
       stroke-width="3"
       id="path29" /><path
       transform="translate(-236.97,-361.7)"
       d="m 404.35,576.56 c 0,0 26.34,6.1872 101.29,32.704"
       fill="none"
       stroke="#999999"
       id="path30" /><path
       transform="translate(-236.97,-361.7)"
       d="m 404.35,575.28 c 0,0 26.34,6.1872 101.29,32.704"
       fill="none"
       stroke="#ececec"
       id="path31" /><path
       d="m 293.31894,21.951507 c 0,0 20.53379,8.183075 35.19987,19.728757 14.66608,11.545685 23.46237,26.45529 23.46237,26.45529 l -37.3003,26.669247 c 0,0 -20.07699,-14.249942 -41.06229,-21.921814 -20.98532,-7.671868 -50.33542,-10.694988 -50.33542,-10.694988 l -9.83162,-40.218371 c 0,0 20.461,-7.389141 38.74982,-7.972501 18.28883,-0.58336 41.11821,7.95438 41.11821,7.95438 z"
       fill="none"
       stroke="url(#f)"
       stroke-width="5.30539"
       id="path13"
       style="display:inline;stroke:#000000;stroke-width:3.57476;stroke-dasharray:none;stroke-opacity:1"
       transform="translate(-6.2823472e-7,-3.7967092e-5)" /><path
       transform="translate(-236.97001,-361.69998)"
       d="m 633.37,598.68 c 0,0 -1.0585,21.443 -8.1364,43.725 -7.0779,22.282 -20.175,45.403 -20.175,45.403 0,0 -18.297,6.7242 -37.6,8.5353 -19.303,1.8111 -39.612,-1.291 -39.612,-1.291 l -10.088,-42.15 -10.371,-43.333 c 0,0 13.772,-16.632 30.468,-31.193 16.696,-14.561 36.315,-27.05 36.315,-27.05 0,0 18.347,8.052 33.147,19.89 14.8,11.838 26.053,27.463 26.053,27.463 z"
       fill="none"
       stroke="url(#d)"
       stroke-linejoin="round"
       stroke-width="4.8705"
       id="path11"
       style="display:inline;fill:#000000;fill-opacity:0;stroke:#000000;stroke-width:4.87063;stroke-dasharray:none;stroke-opacity:1" /><path
       d="m 150.64853,441.02197 c 0,0 -20.68538,-8.1207 -35.45974,-19.57838 C 100.41443,409.98591 91.553191,395.18996 91.553191,395.18996 L 129.12888,368.724 c 0,0 20.22523,14.14131 41.36544,21.75471 21.14026,7.61339 45.68549,9.79082 45.68549,9.79082 l 15.02825,38.88352 c 0,0 -20.71455,9.18375 -39.13838,9.76266 -18.42386,0.57892 -41.4218,-7.89374 -41.4218,-7.89374 z"
       fill="none"
       stroke="url(#f)"
       stroke-width="5.30539"
       id="path34"
       style="display:inline;stroke:#000000;stroke-width:3.57423;stroke-dasharray:none;stroke-opacity:1"
       sodipodi:nodetypes="csccsccscc" /><g
       inkscape:groupmode="layer"
       id="layer2"
       inkscape:label="Layer 1"
       transform="matrix(0,5.188525,-5.1709131,0,469.89798,-2212.3635)"><path
         style="fill:#000000;fill-opacity:0;stroke:#000000;stroke-width:0.201613"
         d="m 458.46631,6.4410814 c 2.48863,-0.3702533 4.76948,-0.3457356 6.99601,-0.2180058 l 5.50962,-2.4377018 -4.93487,0.2972806 -4.41957,0.7233833 -3.47819,0.9017513 z"
         id="path3"
         sodipodi:nodetypes="ccccccc" /></g><path
       style="fill:#000000;fill-opacity:0;stroke:#000000;stroke-width:1.04429"
       d="m 400.211,371.54614 c -5.49894,2.3578 -11.65058,4.42732 -17.42174,6.37541 -5.7523,9.83515 -11.76026,18.64419 -17.78043,27.40419 l 5.73893,-3.75323 18.03663,-17.3269 z"
       id="path4"
       sodipodi:nodetypes="cccccc" /></g></svg>
