<?xml version="1.0" encoding="UTF-8" standalone="no"?>
<!-- Created with Inkscape (http://www.inkscape.org/) -->

<svg
   width="2000"
   height="200"
   viewBox="0 0 529.16665 52.916666"
   version="1.1"
   id="svg1"
   xml:space="preserve"
   sodipodi:docname="dw lublin baner.svg"
   inkscape:version="1.4.2 (f4327f4, 2025-05-13)"
   xmlns:inkscape="http://www.inkscape.org/namespaces/inkscape"
   xmlns:sodipodi="http://sodipodi.sourceforge.net/DTD/sodipodi-0.dtd"
   xmlns:xlink="http://www.w3.org/1999/xlink"
   xmlns="http://www.w3.org/2000/svg"
   xmlns:svg="http://www.w3.org/2000/svg"
   xmlns:rdf="http://www.w3.org/1999/02/22-rdf-syntax-ns#"
   xmlns:cc="http://creativecommons.org/ns#"
   xmlns:dc="http://purl.org/dc/elements/1.1/"><sodipodi:namedview
     id="namedview1"
     pagecolor="#ffffff"
     bordercolor="#000000"
     borderopacity="0.25"
     inkscape:showpageshadow="2"
     inkscape:pageopacity="0.0"
     inkscape:pagecheckerboard="0"
     inkscape:deskcolor="#d1d1d1"
     inkscape:clip-to-page="true"
     inkscape:zoom="0.59"
     inkscape:cx="1033.8983"
     inkscape:cy="160.16949"
     inkscape:window-width="1920"
     inkscape:window-height="1017"
     inkscape:window-x="-8"
     inkscape:window-y="-8"
     inkscape:window-maximized="1"
     inkscape:current-layer="svg1" /><defs
     id="defs1"><linearGradient
       id="linearGradient16"><stop
         style="stop-color:#d0041d;stop-opacity:1;"
         offset="0"
         id="stop16" /><stop
         style="stop-color:#000000;stop-opacity:1;"
         offset="1"
         id="stop17" /></linearGradient><rect
       x="54.539278"
       y="29.21747"
       width="368.82417"
       height="151.31639"
       id="rect12" /><rect
       x="33.113133"
       y="35.060965"
       width="940.80255"
       height="151.93084"
       id="rect11" /><linearGradient
       xlink:href="#linearGradient16"
       id="linearGradient17"
       x1="270.19553"
       y1="2.9726095"
       x2="270.1955"
       y2="424.18927"
       gradientUnits="userSpaceOnUse" /><rect
       x="54.539278"
       y="29.21747"
       width="368.82417"
       height="151.31639"
       id="rect17" /><filter
       style="color-interpolation-filters:sRGB;"
       inkscape:label="Blur"
       id="filter1"
       x="-0.016380724"
       y="-0.052647815"
       width="1.0327614"
       height="1.1052956"><feGaussianBlur
         stdDeviation="2 2"
         result="blur"
         id="feGaussianBlur1" /></filter><rect
       x="54.539278"
       y="29.21747"
       width="368.82417"
       height="151.31639"
       id="rect14" /><rect
       x="54.539278"
       y="29.21747"
       width="368.82417"
       height="151.31639"
       id="rect1" /></defs><metadata
     id="metadata1"><rdf:RDF><cc:Work
         rdf:about=""><dc:creator><cc:Agent><dc:title>Michnel Żyszkiewicz</dc:title></cc:Agent></dc:creator><dc:rights><cc:Agent><dc:title>Michnel Żyszkiewicz</dc:title></cc:Agent></dc:rights></cc:Work></rdf:RDF></metadata><rect
     style="fill:url(#linearGradient17);fill-opacity:1;stroke-width:0.201744"
     id="rect13"
     width="530.30927"
     height="54.628551"
     x="-0.51536322"
     y="0" /><g
     id="layer1"
     transform="translate(-1.1211158,1.5695621)"><text
       xml:space="preserve"
       transform="matrix(0.48852057,0,0,0.48852057,-18.029889,-20.790308)"
       id="text1"
       style="font-size:119.874px;text-align:start;writing-mode:lr-tb;direction:ltr;white-space:pre;shape-inside:url(#rect1);fill:#000000;fill-opacity:1"><tspan
         x="54.539062"
         y="138.58148"
         id="tspan3"><tspan
           style="font-family:'Fira Sans';-inkscape-font-specification:'Fira Sans'"
           id="tspan2">Lublin</tspan></tspan></text><text
       xml:space="preserve"
       transform="matrix(0.48852056,0,0,0.48852056,-17.581443,-21.014531)"
       id="text12"
       style="font-size:119.874px;text-align:start;writing-mode:lr-tb;direction:ltr;white-space:pre;shape-inside:url(#rect12);fill:#ffffff;fill-opacity:1"><tspan
         x="54.539062"
         y="138.58148"
         id="tspan6"><tspan
           style="font-family:'Fira Sans';-inkscape-font-specification:'Fira Sans'"
           id="tspan5">Lublin</tspan></tspan></text></g><g
     id="g10"
     transform="matrix(0.16837337,0,0,0.16837337,435.77408,2.3260292)"
     style="fill:#000000;opacity:0.5"><path
       d="m 191.91524,152.208 c -0.936,-0.648 -2.016,1.296 -2.52,1.944 -1.872,2.088 -4.464,2.808 -6.984,1.872 -2.304,-0.792 -4.104,-2.736 -0.792,-4.392 3.024,-1.512 0.864,-5.184 -0.648,-8.928 -1.008,-2.448 -1.224,-5.688 -0.216,-10.368 -3.672,-6.624 1.08,-12.024 4.104,-15.264 1.008,-1.08 2.52,-2.232 3.024,-3.528 0.36,-0.936 0.288,-1.584 -0.432,-2.232 -3.96,-3.456 -4.68,-2.952 -4.968,-8.496 -0.072,-1.44 -0.36,-2.232 -2.736,-2.736 -2.16,-0.432 -3.888,-1.8 -5.256,-3.6 -2.592,-3.456 -0.792,-10.512 2.376,-12.6 1.368,-1.008 1.872,-1.08 2.016,-2.664 1.08,-10.152 7.056,-10.368 13.248,-11.376 4.464,-0.72 7.056,-2.304 9.864,-4.896 5.04,-4.608 11.52,-8.64 17.208,-13.176 1.152,-0.936 1.944,-2.376 2.736,-5.112 1.872,-5.976 6.192,-7.92 10.44,-9.36 1.296,-0.432 2.952,-0.7919 2.952,-2.232 0,-1.944 1.008,-4.896 2.016,-6.984 2.664,-5.616 10.08,-13.968 16.272,-17.64 1.944,-1.152 3.312,-1.656 5.616,-1.512 0.864,0.072 1.656,0.072 2.664,-0.648 1.512,-1.008 3.528,-3.744 5.904,-5.688 1.944,-1.512 4.536,-2.592 7.056,-2.592 1.512,0 3.024,2.664 2.016,4.464 -4.032,7.2 -9.648,12.24 -11.448,20.592 -0.288,1.44 -0.36,2.664 1.44,2.52 h 3.744 c 2.376,0 3.384,-1.296 4.968,-2.808 7.56,-7.272 10.008,-9.072 20.808,-11.016 3.816,-2.664 16.416,-9 36.72,-4.032 14.4,-0.432 28.728,6.624 35.928,29.016 3.816,2.52 8.208,9 9.432,12.312 10.728,5.76 16.92,16.632 18.144,30.744 4.752,5.112 11.232,22.176 9.864,41.472 5.544,14.616 2.376,27.792 1.08,39.312 2.088,10.728 1.584,20.808 -0.36,31.896 2.304,4.824 3.744,22.608 1.224,29.448 5.616,7.992 4.68,12.888 5.328,20.304 0.36,4.176 1.728,9.072 4.752,15.696 3.024,6.552 0.288,6.48 -4.392,3.96 -13.536,-7.56 -14.904,-16.344 -15.912,-22.68 -7.992,-9.216 -7.416,-15.984 -6.984,-24.264 -6.84,-8.856 -9,-18.288 -5.256,-30.168 -5.112,-10.656 -2.592,-25.776 -1.872,-34.344 -1.368,-8.136 -4.464,-21.24 -2.52,-40.392 -0.936,-3.672 -3.168,-6.912 -4.032,-9.288 -0.432,-1.08 -1.512,-1.728 -1.44,1.44 0.144,3.456 -3.744,10.944 -5.472,14.76 -0.288,12.96 -3.6,21.384 -9.792,29.448 0.792,9.864 -3.456,26.28 -8.856,32.616 2.088,7.776 1.728,15.336 -0.936,22.968 2.952,6.048 1.08,14.616 0.504,22.392 -0.36,6.048 0.576,10.872 2.52,16.632 0.936,2.736 -0.936,5.184 -3.672,3.888 -13.104,-6.264 -14.184,-26.496 -13.608,-24.408 -7.344,-8.136 -3.816,-22.464 -3.816,-26.064 -4.968,-13.536 -1.008,-21.456 1.944,-29.016 -1.44,-19.008 1.44,-22.104 6.408,-31.464 1.512,-13.032 0,-22.968 7.416,-34.272 -1.152,-1.8 -1.152,-29.376 0.72,-32.04 -1.512,-2.16 -2.52,-3.672 -3.024,-5.4 -2.88,-1.8 -8.784,-3.168 -12.96,-5.544 -1.8,-1.008 -1.584,-0.792 -2.808,1.08 -1.44,2.16 -4.104,4.896 -6.048,6.552 -0.936,0.792 0,1.656 0.648,2.952 2.736,5.544 3.528,10.656 3.744,15.12 0.36,6.12 -0.144,12.744 -0.936,18.504 -0.576,4.392 -1.584,7.92 -1.584,12.528 0,4.608 0.72,9 4.464,8.208 2.16,-0.432 4.536,-3.024 3.456,1.584 -1.152,4.392 -2.592,6.552 -5.76,7.56 -1.296,0.36 -2.952,0.792 -5.328,0.864 -1.512,0 -1.944,-0.432 -1.8,2.088 0.216,4.536 -2.16,12.312 -4.752,17.928 -2.376,4.968 -8.28,10.944 -3.312,16.128 2.664,2.664 5.4,1.872 8.064,0.432 1.512,-0.792 3.312,-0.792 1.584,2.736 -4.32,8.784 -9,9.504 -15.048,8.424 -1.872,-0.288 -2.736,-0.576 -3.096,2.808 -0.504,5.472 0.216,11.88 2.592,17.568 2.304,5.472 2.592,10.08 3.816,15.696 0.72,3.24 3.168,6.336 5.112,9.504 7.488,12.168 13.176,24.12 18.792,35.712 5.832,12.024 10.944,25.416 17.568,36.144 9.288,15.048 20.016,29.52 33.264,41.328 5.4,4.824 11.88,11.232 15.48,17.712 2.52,4.464 4.968,11.304 9.216,14.616 3.384,2.664 7.776,3.744 11.016,5.4 6.48,3.168 11.808,7.632 16.128,13.464 4.104,5.544 7.056,12.096 7.488,18.864 0.288,5.76 1.152,12.888 3.024,17.136 2.448,5.544 5.328,4.536 9.288,1.872 2.16,-1.44 2.808,0.144 2.304,1.512 -2.448,6.912 -6.696,9.216 -10.584,9.288 -1.728,0 -1.584,1.008 -1.296,2.304 1.512,8.64 -1.368,11.88 -1.872,16.704 -1.008,8.856 1.512,9.36 7.92,9.216 2.016,0 2.16,2.16 -1.008,4.464 -4.752,3.528 -19.296,2.448 -19.872,-5.256 -0.144,-2.016 -0.648,-2.736 -2.664,-1.656 -3.384,1.872 -9.072,1.08 -12.312,-1.368 -3.6,-2.808 -2.232,-4.608 -0.216,-4.824 2.808,-0.36 4.752,-0.504 6.408,-3.024 2.016,-3.024 1.368,-7.416 0.072,-10.512 -2.952,-7.056 -10.152,-10.224 -12.6,-17.352 -1.224,-3.528 -1.224,-7.416 -0.936,-11.376 0.792,-9.864 5.904,-19.224 -2.304,-27.36 -1.728,-1.656 -3.024,-1.512 -2.448,0.864 1.08,5.04 -3.96,15.984 -5.04,20.736 -1.224,5.256 -2.736,12.096 4.248,12.384 1.008,0.072 1.944,1.152 0.144,2.88 -3.528,3.24 -6.48,3.528 -9.648,1.728 -2.016,-1.152 -1.728,-0.936 -1.08,2.16 0.792,3.672 1.44,5.328 3.672,8.208 3.456,4.392 4.392,13.896 -1.152,17.064 -4.032,2.232 -3.744,-1.152 -3.744,-3.384 0,-2.736 -0.936,-5.832 -2.664,-6.696 -1.368,-0.72 -3.24,-0.36 -3.888,1.656 -0.72,2.592 -0.792,7.848 0.072,11.88 1.008,4.896 4.968,9.792 9.144,12.744 4.176,2.952 10.296,3.528 13.608,7.632 1.584,1.872 2.88,4.248 2.952,7.992 0,4.464 0.36,3.816 2.376,7.848 2.736,5.544 -0.72,10.296 -3.672,13.968 -6.624,8.136 -10.584,18.576 -12.6,28.872 -1.656,8.352 -3.024,16.416 -6.336,24.408 -1.872,4.392 -3.456,8.784 -3.888,13.176 -0.288,2.952 0.288,5.832 0.36,9.072 0.144,4.248 1.152,6.264 -3.312,8.928 -2.016,1.224 -5.688,3.096 -8.064,2.952 -2.592,-0.144 -1.152,-1.8 -4.176,-0.936 -0.864,0.216 -2.232,1.152 -3.312,2.16 -2.664,2.592 -0.216,4.824 -1.656,7.92 -0.432,1.008 -2.016,1.728 -1.8,3.312 0.936,7.92 -2.52,18.288 -8.496,23.688 -5.832,5.328 -14.688,7.776 -22.32,7.344 -2.88,-0.144 -5.4,-1.584 -6.12,-4.32 -0.144,-0.504 -0.504,-1.224 -1.872,-1.296 -4.32,-0.288 -8.568,-0.648 -10.944,-5.112 -1.512,-2.736 1.296,-5.904 3.096,-7.848 3.528,-3.744 7.776,-6.12 9.864,-10.512 1.008,-2.016 1.44,-3.816 1.224,-7.416 -0.36,-8.208 2.808,-11.376 7.056,-14.616 4.392,-3.384 11.448,-6.048 16.848,-12.744 6.624,-8.28 8.784,-20.88 12.816,-30.528 3.384,-8.208 5.04,-19.368 2.808,-29.304 -1.512,-6.84 -5.184,-12.6 -10.512,-17.424 -6.192,-5.616 -17.784,-13.824 -22.104,-20.736 -2.448,-3.888 -4.464,-4.968 -6.696,-2.736 -2.52,2.592 -6.192,6.696 -6.624,11.016 -0.288,3.6 0.648,6.336 2.376,8.928 1.728,2.664 3.744,5.184 3.888,7.992 0.288,5.328 -1.44,6.264 -3.816,10.656 -0.864,1.656 -1.224,2.304 -1.656,4.68 -1.296,7.2 -4.032,5.904 -11.088,9.216 -2.016,0.936 -3.312,2.736 -4.32,4.536 -3.168,5.688 -13.248,15.696 -18.504,20.664 -7.488,7.056 -15.048,13.896 -19.944,19.584 -5.184,6.12 -2.808,8.712 -4.68,13.536 -1.584,4.032 -4.752,6.264 -8.568,7.776 -3.6,1.368 -6.624,2.304 -6.624,-0.504 0,-1.512 -3.528,-0.864 -3.744,0.648 -0.216,1.44 -0.792,3.312 -2.664,5.328 -0.936,1.008 -0.792,2.376 -0.936,3.312 -1.152,8.496 -2.16,13.32 -8.28,19.44 -4.536,4.536 -18.936,7.2 -25.2,4.464 -1.8,-0.72 -3.168,-2.232 -4.176,-5.04 -0.432,-1.08 -1.656,-2.232 -2.808,-1.944 -1.44,0.432 -12.456,-4.32 -7.56,-10.08 3.456,-4.032 11.736,-5.688 15.336,-13.392 1.512,-3.312 0,-7.128 0.864,-10.224 0.72,-2.736 2.304,-5.544 7.416,-8.568 7.416,-4.536 18.36,-8.496 24.84,-14.256 4.176,-3.744 4.608,-7.344 8.352,-11.736 5.328,-6.192 14.832,-16.92 19.872,-28.08 2.952,-6.624 3.744,-13.608 3.312,-18.864 -0.432,-5.184 -2.808,-8.568 -5.112,-13.248 -5.616,-11.592 -8.352,-24.696 -7.128,-37.584 1.224,-12.888 5.688,-20.52 13.176,-29.088 5.832,-6.768 14.328,-16.128 15.912,-23.4 1.584,-7.344 -8.784,-8.496 -8.496,-16.488 -3.384,-2.736 -6.264,-5.544 -9.072,-8.352 -5.544,-5.616 -11.736,-11.664 -19.152,-15.984 -7.704,-4.464 -14.256,-6.336 -21.816,-11.304 -10.152,-6.624 -18.36,-15.768 -24.84,-25.92 -1.512,-2.304 -2.52,-4.896 -3.744,-6.984 -0.864,-1.368 -2.16,-2.088 -3.024,-1.008 -1.728,2.16 -6.336,6.696 -4.536,0.072 0.72,-2.736 1.152,-5.256 0.792,-8.136 -0.216,-1.944 -2.808,-4.176 -3.816,-6.048 -0.792,-1.512 -1.224,-3.024 -1.008,-4.68 0.144,-1.296 0.504,-3.384 -1.656,-1.944 -3.384,2.232 -3.6,7.92 -3.816,11.448 -0.216,2.736 -2.52,2.088 -3.672,0.36 -4.968,-7.128 -3.456,-12.024 -2.088,-15.552 0.72,-1.872 2.736,-3.96 3.24,-5.832 0.72,-2.664 -0.936,-2.16 -2.664,-2.736 -3.6,-1.296 -5.976,-5.112 -8.28,-7.92 -2.592,-3.096 -5.04,-6.84 -8.208,-10.584 -4.248,-5.04 -9.288,-7.92 -14.544,-11.736 -8.352,-6.048 -15.912,-13.248 -23.256,-20.52 -2.016,-2.016 -2.736,-3.744 -4.896,-4.176 -2.232,-0.432 -4.464,-0.792 -6.84,-1.8 -4.032,-1.584 -7.632,-4.32 -11.448,-6.264 -2.88,-1.44 -3.528,-1.728 -8.568,-0.576 -8.568,1.944 -17.496,5.544 -25.488,8.568 -4.752,1.8 -10.296,4.104 -13.896,7.488 -1.8,1.728 -2.808,3.528 -3.888,5.112 -2.376,3.24 -5.904,4.32 -8.424,3.528 -2.448,-0.72 -3.24,-1.944 -6.408,-1.872 -2.592,0 -4.536,2.448 -6.408,4.104 -6.696,6.12 -16.848,7.272 -25.992,2.952 -3.456,-1.584 -5.976,-4.392 -7.2,-7.992 -0.432,-1.224 -0.576,-2.52 0.504,-3.672 0.648,-0.72 2.16,-0.936 2.448,-2.16 0.072,-0.648 -0.576,-1.224 -0.936,-2.232 -1.296,-4.032 -0.576,-8.28 4.032,-8.208 3.024,0 5.616,1.224 8.424,1.368 1.8,0.144 7.128,-0.864 8.28,-2.16 2.088,-2.232 3.888,-5.832 6.984,-6.768 4.752,-1.368 10.512,-0.72 15.912,-1.008 3.888,-0.144 7.848,-0.936 11.376,-2.52 4.968,-2.232 10.584,-5.76 12.672,-6.912 4.896,-2.592 9.648,-5.688 14.4,-8.784 2.664,-1.8 9.432,-2.952 12.168,-4.608 4.32,-2.592 4.32,-5.472 10.44,-5.976 2.664,-0.216 5.256,0.144 7.992,0.432 1.224,0.144 2.52,-0.072 3.888,-0.216 4.392,-0.432 7.128,2.952 10.44,6.336 2.952,3.096 7.56,5.976 11.952,7.704 5.256,2.016 4.32,1.008 1.656,-2.592 -0.864,-1.296 -2.232,-2.88 -3.24,-4.248 -1.8,-2.52 -2.88,-5.112 -3.744,-7.848 -0.072,-0.36 -1.656,-2.16 -4.032,-3.024 -2.232,-0.864 -4.464,-2.88 -6.192,-4.68 -1.728,-1.8 -3.456,-3.384 -3.744,-3.528 -1.944,-0.792 -4.032,-1.224 -6.192,-1.656 -7.632,-1.8 -23.976,-1.872 -32.04,-1.008 -2.376,0.288 -4.608,0.864 -6.192,1.656 -4.176,1.944 -8.712,7.2 -13.68,7.2 -3.6,0 -9.576,-0.36 -7.344,-5.4 0.36,-0.792 1.008,-1.584 1.296,-2.232 1.08,-2.304 -1.224,-2.232 -2.88,-1.872 -1.224,0.216 -2.232,1.8 -3.384,2.448 -2.592,1.512 -3.24,-0.072 -4.464,0.72 -2.376,1.656 -5.832,3.456 -9.504,4.248 -2.448,0.576 -7.848,0.72 -11.232,0.216 -6.696,-0.864 -13.824,-10.08 -13.824,-17.064 -0.072,-3.024 0.576,-4.176 3.888,-3.384 3.312,0.864 1.224,-1.656 0.864,-3.168 -0.432,-1.656 -0.648,-4.032 -0.36,-5.616 0.576,-2.808 2.304,-4.752 6.048,-2.088 3.384,2.52 10.368,2.304 14.904,2.448 2.088,0.072 2.16,1.656 3.744,1.152 1.44,-0.504 3.168,-2.016 5.832,-2.736 3.528,-1.008 9.072,-0.504 12.384,0.72 6.336,2.304 8.496,4.392 14.328,4.464 4.032,0.072 9.864,-1.08 13.896,-1.872 7.488,-1.44 15.264,-3.456 22.752,-5.472 3.384,-0.936 7.056,-0.936 10.224,-2.232 1.872,-0.72 3.96,-1.8 5.616,-1.728 4.32,0.072 7.92,3.384 12.816,4.968 2.664,0.864 5.616,1.872 7.56,3.096 3.672,2.232 2.88,7.92 4.896,10.728 7.128,10.368 22.464,18.072 32.544,28.44 1.944,1.944 3.456,3.744 4.176,5.616 0.792,1.944 2.016,1.656 2.16,-0.432 1.44,-14.112 5.904,-17.424 13.896,-22.896 1.584,-1.08 3.528,-2.232 3.816,-4.176 0.504,-2.736 1.872,-5.04 3.816,-7.56 2.448,-3.096 5.544,-6.048 8.712,-8.28 1.44,-1.008 2.448,-1.944 -0.216,-3.024 -0.792,-0.288 -2.736,-0.144 -4.032,0.216 -1.872,0.576 -2.448,0.432 -2.088,-1.08 1.8,-7.128 6.84,-6.552 11.232,-6.696 1.656,-0.072 4.104,-1.728 5.112,-2.664 2.232,-2.088 5.184,-6.408 7.416,-8.208 2.16,-1.872 0.864,-2.232 -1.152,-3.528 -3.672,-2.448 -2.088,-7.056 -0.072,-10.224 1.224,-1.872 2.232,-3.384 3.312,0.288 0.648,2.592 1.728,1.728 3.24,0.792 2.088,-1.296 8.496,-10.152 4.176,-10.872 -3.24,-0.576 -7.128,-2.16 -9.72,-3.384 -1.944,-1.008 -3.384,-1.8 -4.608,-1.368 -6.552,2.016 -14.76,0.72 -18.936,0.072 -1.08,-0.144 -2.376,-0.504 -3.24,0.072 -0.864,0.576 -1.296,3.456 -1.44,4.392 -0.144,1.944 0.36,3.312 1.008,5.256 2.448,7.992 2.376,11.16 -1.296,15.264 -1.584,1.8 -3.816,2.448 -5.544,3.672 -2.304,1.728 -4.968,4.248 -5.544,6.768 -0.648,2.52 0.792,4.752 1.8,7.416 1.512,4.032 1.584,9.936 -1.152,13.536 -1.44,1.8 -3.744,2.448 -5.904,2.592 -1.44,0.144 -3.024,-1.224 -1.728,-2.592 1.656,-1.656 3.312,-5.256 0.216,-7.344 z"
       fill-rule="evenodd"
       id="path6"
       style="fill:#000000" /><path
       d="m 314.09924,496.512 c -0.288,-6.984 2.448,-7.2 2.88,-3.744 0.216,1.728 -0.144,3.96 1.944,6.768 1.152,1.656 2.448,3.24 2.808,4.68 0.288,1.44 -0.432,2.52 -1.152,3.456 -1.368,1.944 -2.736,4.824 -3.024,7.2 -0.288,1.728 -0.72,2.592 -2.736,2.952 -1.584,0.36 -3.6,0.072 -5.328,0.432 -2.376,0.576 -2.592,2.376 -4.248,3.96 -1.728,1.584 -4.104,2.232 -2.88,-1.512 1.368,-4.032 3.456,-5.976 6.624,-7.128 5.04,-1.8 3.96,-0.144 6.048,-5.472 1.08,-2.736 2.376,-2.52 1.44,-5.688 -0.864,-2.736 -2.232,-3.456 -2.376,-5.904 z"
       fill-rule="evenodd"
       id="path7"
       style="fill:#000000" /><path
       d="m 404.31524,497.952 c 0.144,3.024 0.936,3.24 -1.728,5.4 -2.88,2.304 -2.16,3.744 -2.808,6.696 -0.936,4.176 -3.024,0.648 -2.736,-1.872 0.432,-3.312 1.8,-4.752 3.168,-7.488 0.936,-1.944 0.072,-4.752 -0.144,-7.704 -0.288,-4.536 0.072,-3.456 -4.536,-5.976 -0.72,-0.36 -1.944,-1.368 -2.664,-2.304 -1.944,-2.448 -2.736,-5.472 0.36,-3.312 2.16,1.44 5.112,3.024 8.136,4.608 3.24,1.728 2.664,3.168 2.592,6.048 -0.072,1.944 0.288,3.528 0.36,5.904 z"
       fill-rule="evenodd"
       id="path8"
       style="fill:#000000" /><path
       d="m 257.14724,52.992 c 3.384,-0.216 3.96,-1.944 0.36,-2.448 -8.856,-1.08 -11.664,3.24 -17.784,8.64 -1.8,1.584 -3.672,4.608 -6.192,5.328 -0.864,0.288 -2.952,0.36 -3.816,0.2161 -2.232,-0.4321 -1.728,1.3679 -0.432,2.3039 1.872,1.224 5.04,-0.144 7.2,0 2.88,0.216 2.376,0.936 3.168,2.664 7.92,16.416 29.016,7.848 30.6,-6.84 0.144,-1.08 1.08,-1.224 2.232,-1.152 4.32,0.36 7.992,-1.512 7.992,-6.552 0,-3.24 -2.232,-2.232 -2.808,0 -0.72,3.312 -4.68,3.24 -6.84,1.296 -2.016,-1.9439 -3.744,-3.384 -4.896,-3.744 -3.24,-1.008 -3.528,1.08 -1.656,1.8001 1.008,0.3599 2.736,1.6559 2.88,2.4479 0.36,1.584 -0.504,1.44 -1.656,1.152 -5.688,-1.152 -10.728,-1.656 -17.208,1.944 -2.088,1.152 -4.104,1.296 -2.232,-0.936 3.384,-3.96 5.328,-5.688 11.088,-6.12 z"
       fill-rule="evenodd"
       id="path9"
       style="fill:#000000" /><path
       d="m 297.89924,61.776 c 1.584,-3.024 5.688,-4.176 8.784,-5.688 5.976,-2.952 10.656,-7.2 15.552,-12.096 4.824,-4.824 8.352,-11.16 12.312,-16.128 3.096,-3.888 2.448,-0.432 1.224,2.952 -2.304,6.48 -9.864,16.776 -14.04,21.96 -4.392,5.328 -7.488,7.416 -14.256,8.496 -2.88,0.432 -5.184,0.36 -5.184,2.736 0,1.656 -1.368,3.672 -3.384,3.168 -2.304,-0.504 -1.728,-3.96 -1.008,-5.4 z"
       fill-rule="evenodd"
       id="path10"
       style="fill:#000000" /></g><g
     id="g15"
     transform="matrix(0.16837337,0,0,0.16837337,435.9603,2.028075)"
     style="fill:#ffffff"><path
       d="m 191.91524,152.208 c -0.936,-0.648 -2.016,1.296 -2.52,1.944 -1.872,2.088 -4.464,2.808 -6.984,1.872 -2.304,-0.792 -4.104,-2.736 -0.792,-4.392 3.024,-1.512 0.864,-5.184 -0.648,-8.928 -1.008,-2.448 -1.224,-5.688 -0.216,-10.368 -3.672,-6.624 1.08,-12.024 4.104,-15.264 1.008,-1.08 2.52,-2.232 3.024,-3.528 0.36,-0.936 0.288,-1.584 -0.432,-2.232 -3.96,-3.456 -4.68,-2.952 -4.968,-8.496 -0.072,-1.44 -0.36,-2.232 -2.736,-2.736 -2.16,-0.432 -3.888,-1.8 -5.256,-3.6 -2.592,-3.456 -0.792,-10.512 2.376,-12.6 1.368,-1.008 1.872,-1.08 2.016,-2.664 1.08,-10.152 7.056,-10.368 13.248,-11.376 4.464,-0.72 7.056,-2.304 9.864,-4.896 5.04,-4.608 11.52,-8.64 17.208,-13.176 1.152,-0.936 1.944,-2.376 2.736,-5.112 1.872,-5.976 6.192,-7.92 10.44,-9.36 1.296,-0.432 2.952,-0.7919 2.952,-2.232 0,-1.944 1.008,-4.896 2.016,-6.984 2.664,-5.616 10.08,-13.968 16.272,-17.64 1.944,-1.152 3.312,-1.656 5.616,-1.512 0.864,0.072 1.656,0.072 2.664,-0.648 1.512,-1.008 3.528,-3.744 5.904,-5.688 1.944,-1.512 4.536,-2.592 7.056,-2.592 1.512,0 3.024,2.664 2.016,4.464 -4.032,7.2 -9.648,12.24 -11.448,20.592 -0.288,1.44 -0.36,2.664 1.44,2.52 h 3.744 c 2.376,0 3.384,-1.296 4.968,-2.808 7.56,-7.272 10.008,-9.072 20.808,-11.016 3.816,-2.664 16.416,-9 36.72,-4.032 14.4,-0.432 28.728,6.624 35.928,29.016 3.816,2.52 8.208,9 9.432,12.312 10.728,5.76 16.92,16.632 18.144,30.744 4.752,5.112 11.232,22.176 9.864,41.472 5.544,14.616 2.376,27.792 1.08,39.312 2.088,10.728 1.584,20.808 -0.36,31.896 2.304,4.824 3.744,22.608 1.224,29.448 5.616,7.992 4.68,12.888 5.328,20.304 0.36,4.176 1.728,9.072 4.752,15.696 3.024,6.552 0.288,6.48 -4.392,3.96 -13.536,-7.56 -14.904,-16.344 -15.912,-22.68 -7.992,-9.216 -7.416,-15.984 -6.984,-24.264 -6.84,-8.856 -9,-18.288 -5.256,-30.168 -5.112,-10.656 -2.592,-25.776 -1.872,-34.344 -1.368,-8.136 -4.464,-21.24 -2.52,-40.392 -0.936,-3.672 -3.168,-6.912 -4.032,-9.288 -0.432,-1.08 -1.512,-1.728 -1.44,1.44 0.144,3.456 -3.744,10.944 -5.472,14.76 -0.288,12.96 -3.6,21.384 -9.792,29.448 0.792,9.864 -3.456,26.28 -8.856,32.616 2.088,7.776 1.728,15.336 -0.936,22.968 2.952,6.048 1.08,14.616 0.504,22.392 -0.36,6.048 0.576,10.872 2.52,16.632 0.936,2.736 -0.936,5.184 -3.672,3.888 -13.104,-6.264 -14.184,-26.496 -13.608,-24.408 -7.344,-8.136 -3.816,-22.464 -3.816,-26.064 -4.968,-13.536 -1.008,-21.456 1.944,-29.016 -1.44,-19.008 1.44,-22.104 6.408,-31.464 1.512,-13.032 0,-22.968 7.416,-34.272 -1.152,-1.8 -1.152,-29.376 0.72,-32.04 -1.512,-2.16 -2.52,-3.672 -3.024,-5.4 -2.88,-1.8 -8.784,-3.168 -12.96,-5.544 -1.8,-1.008 -1.584,-0.792 -2.808,1.08 -1.44,2.16 -4.104,4.896 -6.048,6.552 -0.936,0.792 0,1.656 0.648,2.952 2.736,5.544 3.528,10.656 3.744,15.12 0.36,6.12 -0.144,12.744 -0.936,18.504 -0.576,4.392 -1.584,7.92 -1.584,12.528 0,4.608 0.72,9 4.464,8.208 2.16,-0.432 4.536,-3.024 3.456,1.584 -1.152,4.392 -2.592,6.552 -5.76,7.56 -1.296,0.36 -2.952,0.792 -5.328,0.864 -1.512,0 -1.944,-0.432 -1.8,2.088 0.216,4.536 -2.16,12.312 -4.752,17.928 -2.376,4.968 -8.28,10.944 -3.312,16.128 2.664,2.664 5.4,1.872 8.064,0.432 1.512,-0.792 3.312,-0.792 1.584,2.736 -4.32,8.784 -9,9.504 -15.048,8.424 -1.872,-0.288 -2.736,-0.576 -3.096,2.808 -0.504,5.472 0.216,11.88 2.592,17.568 2.304,5.472 2.592,10.08 3.816,15.696 0.72,3.24 3.168,6.336 5.112,9.504 7.488,12.168 13.176,24.12 18.792,35.712 5.832,12.024 10.944,25.416 17.568,36.144 9.288,15.048 20.016,29.52 33.264,41.328 5.4,4.824 11.88,11.232 15.48,17.712 2.52,4.464 4.968,11.304 9.216,14.616 3.384,2.664 7.776,3.744 11.016,5.4 6.48,3.168 11.808,7.632 16.128,13.464 4.104,5.544 7.056,12.096 7.488,18.864 0.288,5.76 1.152,12.888 3.024,17.136 2.448,5.544 5.328,4.536 9.288,1.872 2.16,-1.44 2.808,0.144 2.304,1.512 -2.448,6.912 -6.696,9.216 -10.584,9.288 -1.728,0 -1.584,1.008 -1.296,2.304 1.512,8.64 -1.368,11.88 -1.872,16.704 -1.008,8.856 1.512,9.36 7.92,9.216 2.016,0 2.16,2.16 -1.008,4.464 -4.752,3.528 -19.296,2.448 -19.872,-5.256 -0.144,-2.016 -0.648,-2.736 -2.664,-1.656 -3.384,1.872 -9.072,1.08 -12.312,-1.368 -3.6,-2.808 -2.232,-4.608 -0.216,-4.824 2.808,-0.36 4.752,-0.504 6.408,-3.024 2.016,-3.024 1.368,-7.416 0.072,-10.512 -2.952,-7.056 -10.152,-10.224 -12.6,-17.352 -1.224,-3.528 -1.224,-7.416 -0.936,-11.376 0.792,-9.864 5.904,-19.224 -2.304,-27.36 -1.728,-1.656 -3.024,-1.512 -2.448,0.864 1.08,5.04 -3.96,15.984 -5.04,20.736 -1.224,5.256 -2.736,12.096 4.248,12.384 1.008,0.072 1.944,1.152 0.144,2.88 -3.528,3.24 -6.48,3.528 -9.648,1.728 -2.016,-1.152 -1.728,-0.936 -1.08,2.16 0.792,3.672 1.44,5.328 3.672,8.208 3.456,4.392 4.392,13.896 -1.152,17.064 -4.032,2.232 -3.744,-1.152 -3.744,-3.384 0,-2.736 -0.936,-5.832 -2.664,-6.696 -1.368,-0.72 -3.24,-0.36 -3.888,1.656 -0.72,2.592 -0.792,7.848 0.072,11.88 1.008,4.896 4.968,9.792 9.144,12.744 4.176,2.952 10.296,3.528 13.608,7.632 1.584,1.872 2.88,4.248 2.952,7.992 0,4.464 0.36,3.816 2.376,7.848 2.736,5.544 -0.72,10.296 -3.672,13.968 -6.624,8.136 -10.584,18.576 -12.6,28.872 -1.656,8.352 -3.024,16.416 -6.336,24.408 -1.872,4.392 -3.456,8.784 -3.888,13.176 -0.288,2.952 0.288,5.832 0.36,9.072 0.144,4.248 1.152,6.264 -3.312,8.928 -2.016,1.224 -5.688,3.096 -8.064,2.952 -2.592,-0.144 -1.152,-1.8 -4.176,-0.936 -0.864,0.216 -2.232,1.152 -3.312,2.16 -2.664,2.592 -0.216,4.824 -1.656,7.92 -0.432,1.008 -2.016,1.728 -1.8,3.312 0.936,7.92 -2.52,18.288 -8.496,23.688 -5.832,5.328 -14.688,7.776 -22.32,7.344 -2.88,-0.144 -5.4,-1.584 -6.12,-4.32 -0.144,-0.504 -0.504,-1.224 -1.872,-1.296 -4.32,-0.288 -8.568,-0.648 -10.944,-5.112 -1.512,-2.736 1.296,-5.904 3.096,-7.848 3.528,-3.744 7.776,-6.12 9.864,-10.512 1.008,-2.016 1.44,-3.816 1.224,-7.416 -0.36,-8.208 2.808,-11.376 7.056,-14.616 4.392,-3.384 11.448,-6.048 16.848,-12.744 6.624,-8.28 8.784,-20.88 12.816,-30.528 3.384,-8.208 5.04,-19.368 2.808,-29.304 -1.512,-6.84 -5.184,-12.6 -10.512,-17.424 -6.192,-5.616 -17.784,-13.824 -22.104,-20.736 -2.448,-3.888 -4.464,-4.968 -6.696,-2.736 -2.52,2.592 -6.192,6.696 -6.624,11.016 -0.288,3.6 0.648,6.336 2.376,8.928 1.728,2.664 3.744,5.184 3.888,7.992 0.288,5.328 -1.44,6.264 -3.816,10.656 -0.864,1.656 -1.224,2.304 -1.656,4.68 -1.296,7.2 -4.032,5.904 -11.088,9.216 -2.016,0.936 -3.312,2.736 -4.32,4.536 -3.168,5.688 -13.248,15.696 -18.504,20.664 -7.488,7.056 -15.048,13.896 -19.944,19.584 -5.184,6.12 -2.808,8.712 -4.68,13.536 -1.584,4.032 -4.752,6.264 -8.568,7.776 -3.6,1.368 -6.624,2.304 -6.624,-0.504 0,-1.512 -3.528,-0.864 -3.744,0.648 -0.216,1.44 -0.792,3.312 -2.664,5.328 -0.936,1.008 -0.792,2.376 -0.936,3.312 -1.152,8.496 -2.16,13.32 -8.28,19.44 -4.536,4.536 -18.936,7.2 -25.2,4.464 -1.8,-0.72 -3.168,-2.232 -4.176,-5.04 -0.432,-1.08 -1.656,-2.232 -2.808,-1.944 -1.44,0.432 -12.456,-4.32 -7.56,-10.08 3.456,-4.032 11.736,-5.688 15.336,-13.392 1.512,-3.312 0,-7.128 0.864,-10.224 0.72,-2.736 2.304,-5.544 7.416,-8.568 7.416,-4.536 18.36,-8.496 24.84,-14.256 4.176,-3.744 4.608,-7.344 8.352,-11.736 5.328,-6.192 14.832,-16.92 19.872,-28.08 2.952,-6.624 3.744,-13.608 3.312,-18.864 -0.432,-5.184 -2.808,-8.568 -5.112,-13.248 -5.616,-11.592 -8.352,-24.696 -7.128,-37.584 1.224,-12.888 5.688,-20.52 13.176,-29.088 5.832,-6.768 14.328,-16.128 15.912,-23.4 1.584,-7.344 -8.784,-8.496 -8.496,-16.488 -3.384,-2.736 -6.264,-5.544 -9.072,-8.352 -5.544,-5.616 -11.736,-11.664 -19.152,-15.984 -7.704,-4.464 -14.256,-6.336 -21.816,-11.304 -10.152,-6.624 -18.36,-15.768 -24.84,-25.92 -1.512,-2.304 -2.52,-4.896 -3.744,-6.984 -0.864,-1.368 -2.16,-2.088 -3.024,-1.008 -1.728,2.16 -6.336,6.696 -4.536,0.072 0.72,-2.736 1.152,-5.256 0.792,-8.136 -0.216,-1.944 -2.808,-4.176 -3.816,-6.048 -0.792,-1.512 -1.224,-3.024 -1.008,-4.68 0.144,-1.296 0.504,-3.384 -1.656,-1.944 -3.384,2.232 -3.6,7.92 -3.816,11.448 -0.216,2.736 -2.52,2.088 -3.672,0.36 -4.968,-7.128 -3.456,-12.024 -2.088,-15.552 0.72,-1.872 2.736,-3.96 3.24,-5.832 0.72,-2.664 -0.936,-2.16 -2.664,-2.736 -3.6,-1.296 -5.976,-5.112 -8.28,-7.92 -2.592,-3.096 -5.04,-6.84 -8.208,-10.584 -4.248,-5.04 -9.288,-7.92 -14.544,-11.736 -8.352,-6.048 -15.912,-13.248 -23.256,-20.52 -2.016,-2.016 -2.736,-3.744 -4.896,-4.176 -2.232,-0.432 -4.464,-0.792 -6.84,-1.8 -4.032,-1.584 -7.632,-4.32 -11.448,-6.264 -2.88,-1.44 -3.528,-1.728 -8.568,-0.576 -8.568,1.944 -17.496,5.544 -25.488,8.568 -4.752,1.8 -10.296,4.104 -13.896,7.488 -1.8,1.728 -2.808,3.528 -3.888,5.112 -2.376,3.24 -5.904,4.32 -8.424,3.528 -2.448,-0.72 -3.24,-1.944 -6.408,-1.872 -2.592,0 -4.536,2.448 -6.408,4.104 -6.696,6.12 -16.848,7.272 -25.992,2.952 -3.456,-1.584 -5.976,-4.392 -7.2,-7.992 -0.432,-1.224 -0.576,-2.52 0.504,-3.672 0.648,-0.72 2.16,-0.936 2.448,-2.16 0.072,-0.648 -0.576,-1.224 -0.936,-2.232 -1.296,-4.032 -0.576,-8.28 4.032,-8.208 3.024,0 5.616,1.224 8.424,1.368 1.8,0.144 7.128,-0.864 8.28,-2.16 2.088,-2.232 3.888,-5.832 6.984,-6.768 4.752,-1.368 10.512,-0.72 15.912,-1.008 3.888,-0.144 7.848,-0.936 11.376,-2.52 4.968,-2.232 10.584,-5.76 12.672,-6.912 4.896,-2.592 9.648,-5.688 14.4,-8.784 2.664,-1.8 9.432,-2.952 12.168,-4.608 4.32,-2.592 4.32,-5.472 10.44,-5.976 2.664,-0.216 5.256,0.144 7.992,0.432 1.224,0.144 2.52,-0.072 3.888,-0.216 4.392,-0.432 7.128,2.952 10.44,6.336 2.952,3.096 7.56,5.976 11.952,7.704 5.256,2.016 4.32,1.008 1.656,-2.592 -0.864,-1.296 -2.232,-2.88 -3.24,-4.248 -1.8,-2.52 -2.88,-5.112 -3.744,-7.848 -0.072,-0.36 -1.656,-2.16 -4.032,-3.024 -2.232,-0.864 -4.464,-2.88 -6.192,-4.68 -1.728,-1.8 -3.456,-3.384 -3.744,-3.528 -1.944,-0.792 -4.032,-1.224 -6.192,-1.656 -7.632,-1.8 -23.976,-1.872 -32.04,-1.008 -2.376,0.288 -4.608,0.864 -6.192,1.656 -4.176,1.944 -8.712,7.2 -13.68,7.2 -3.6,0 -9.576,-0.36 -7.344,-5.4 0.36,-0.792 1.008,-1.584 1.296,-2.232 1.08,-2.304 -1.224,-2.232 -2.88,-1.872 -1.224,0.216 -2.232,1.8 -3.384,2.448 -2.592,1.512 -3.24,-0.072 -4.464,0.72 -2.376,1.656 -5.832,3.456 -9.504,4.248 -2.448,0.576 -7.848,0.72 -11.232,0.216 -6.696,-0.864 -13.824,-10.08 -13.824,-17.064 -0.072,-3.024 0.576,-4.176 3.888,-3.384 3.312,0.864 1.224,-1.656 0.864,-3.168 -0.432,-1.656 -0.648,-4.032 -0.36,-5.616 0.576,-2.808 2.304,-4.752 6.048,-2.088 3.384,2.52 10.368,2.304 14.904,2.448 2.088,0.072 2.16,1.656 3.744,1.152 1.44,-0.504 3.168,-2.016 5.832,-2.736 3.528,-1.008 9.072,-0.504 12.384,0.72 6.336,2.304 8.496,4.392 14.328,4.464 4.032,0.072 9.864,-1.08 13.896,-1.872 7.488,-1.44 15.264,-3.456 22.752,-5.472 3.384,-0.936 7.056,-0.936 10.224,-2.232 1.872,-0.72 3.96,-1.8 5.616,-1.728 4.32,0.072 7.92,3.384 12.816,4.968 2.664,0.864 5.616,1.872 7.56,3.096 3.672,2.232 2.88,7.92 4.896,10.728 7.128,10.368 22.464,18.072 32.544,28.44 1.944,1.944 3.456,3.744 4.176,5.616 0.792,1.944 2.016,1.656 2.16,-0.432 1.44,-14.112 5.904,-17.424 13.896,-22.896 1.584,-1.08 3.528,-2.232 3.816,-4.176 0.504,-2.736 1.872,-5.04 3.816,-7.56 2.448,-3.096 5.544,-6.048 8.712,-8.28 1.44,-1.008 2.448,-1.944 -0.216,-3.024 -0.792,-0.288 -2.736,-0.144 -4.032,0.216 -1.872,0.576 -2.448,0.432 -2.088,-1.08 1.8,-7.128 6.84,-6.552 11.232,-6.696 1.656,-0.072 4.104,-1.728 5.112,-2.664 2.232,-2.088 5.184,-6.408 7.416,-8.208 2.16,-1.872 0.864,-2.232 -1.152,-3.528 -3.672,-2.448 -2.088,-7.056 -0.072,-10.224 1.224,-1.872 2.232,-3.384 3.312,0.288 0.648,2.592 1.728,1.728 3.24,0.792 2.088,-1.296 8.496,-10.152 4.176,-10.872 -3.24,-0.576 -7.128,-2.16 -9.72,-3.384 -1.944,-1.008 -3.384,-1.8 -4.608,-1.368 -6.552,2.016 -14.76,0.72 -18.936,0.072 -1.08,-0.144 -2.376,-0.504 -3.24,0.072 -0.864,0.576 -1.296,3.456 -1.44,4.392 -0.144,1.944 0.36,3.312 1.008,5.256 2.448,7.992 2.376,11.16 -1.296,15.264 -1.584,1.8 -3.816,2.448 -5.544,3.672 -2.304,1.728 -4.968,4.248 -5.544,6.768 -0.648,2.52 0.792,4.752 1.8,7.416 1.512,4.032 1.584,9.936 -1.152,13.536 -1.44,1.8 -3.744,2.448 -5.904,2.592 -1.44,0.144 -3.024,-1.224 -1.728,-2.592 1.656,-1.656 3.312,-5.256 0.216,-7.344 z"
       fill-rule="evenodd"
       id="path1"
       style="fill:#ffffff" /><path
       d="m 314.09924,496.512 c -0.288,-6.984 2.448,-7.2 2.88,-3.744 0.216,1.728 -0.144,3.96 1.944,6.768 1.152,1.656 2.448,3.24 2.808,4.68 0.288,1.44 -0.432,2.52 -1.152,3.456 -1.368,1.944 -2.736,4.824 -3.024,7.2 -0.288,1.728 -0.72,2.592 -2.736,2.952 -1.584,0.36 -3.6,0.072 -5.328,0.432 -2.376,0.576 -2.592,2.376 -4.248,3.96 -1.728,1.584 -4.104,2.232 -2.88,-1.512 1.368,-4.032 3.456,-5.976 6.624,-7.128 5.04,-1.8 3.96,-0.144 6.048,-5.472 1.08,-2.736 2.376,-2.52 1.44,-5.688 -0.864,-2.736 -2.232,-3.456 -2.376,-5.904 z"
       fill-rule="evenodd"
       id="path2"
       style="fill:#ffffff" /><path
       d="m 404.31524,497.952 c 0.144,3.024 0.936,3.24 -1.728,5.4 -2.88,2.304 -2.16,3.744 -2.808,6.696 -0.936,4.176 -3.024,0.648 -2.736,-1.872 0.432,-3.312 1.8,-4.752 3.168,-7.488 0.936,-1.944 0.072,-4.752 -0.144,-7.704 -0.288,-4.536 0.072,-3.456 -4.536,-5.976 -0.72,-0.36 -1.944,-1.368 -2.664,-2.304 -1.944,-2.448 -2.736,-5.472 0.36,-3.312 2.16,1.44 5.112,3.024 8.136,4.608 3.24,1.728 2.664,3.168 2.592,6.048 -0.072,1.944 0.288,3.528 0.36,5.904 z"
       fill-rule="evenodd"
       id="path3"
       style="fill:#ffffff" /><path
       d="m 257.14724,52.992 c 3.384,-0.216 3.96,-1.944 0.36,-2.448 -8.856,-1.08 -11.664,3.24 -17.784,8.64 -1.8,1.584 -3.672,4.608 -6.192,5.328 -0.864,0.288 -2.952,0.36 -3.816,0.2161 -2.232,-0.4321 -1.728,1.3679 -0.432,2.3039 1.872,1.224 5.04,-0.144 7.2,0 2.88,0.216 2.376,0.936 3.168,2.664 7.92,16.416 29.016,7.848 30.6,-6.84 0.144,-1.08 1.08,-1.224 2.232,-1.152 4.32,0.36 7.992,-1.512 7.992,-6.552 0,-3.24 -2.232,-2.232 -2.808,0 -0.72,3.312 -4.68,3.24 -6.84,1.296 -2.016,-1.9439 -3.744,-3.384 -4.896,-3.744 -3.24,-1.008 -3.528,1.08 -1.656,1.8001 1.008,0.3599 2.736,1.6559 2.88,2.4479 0.36,1.584 -0.504,1.44 -1.656,1.152 -5.688,-1.152 -10.728,-1.656 -17.208,1.944 -2.088,1.152 -4.104,1.296 -2.232,-0.936 3.384,-3.96 5.328,-5.688 11.088,-6.12 z"
       fill-rule="evenodd"
       id="path4"
       style="fill:#ffffff" /><path
       d="m 297.89924,61.776 c 1.584,-3.024 5.688,-4.176 8.784,-5.688 5.976,-2.952 10.656,-7.2 15.552,-12.096 4.824,-4.824 8.352,-11.16 12.312,-16.128 3.096,-3.888 2.448,-0.432 1.224,2.952 -2.304,6.48 -9.864,16.776 -14.04,21.96 -4.392,5.328 -7.488,7.416 -14.256,8.496 -2.88,0.432 -5.184,0.36 -5.184,2.736 0,1.656 -1.368,3.672 -3.384,3.168 -2.304,-0.504 -1.728,-3.96 -1.008,-5.4 z"
       fill-rule="evenodd"
       id="path5"
       style="fill:#ffffff" /></g><style
     type="text/css"
     id="style1">
	.st0{fill-rule:evenodd;clip-rule:evenodd;fill:#D0041D;}
	.st1{fill-rule:evenodd;clip-rule:evenodd;fill:#4E6A6F;}
	.st2{fill-rule:evenodd;clip-rule:evenodd;fill:#FFFFFF;}
	.st3{fill:none;stroke:#FFFFFF;stroke-width:6.505;}
	.st4{fill:#4E6A6F;}
</style></svg>
